<svg width="36" height="36" viewBox="0 0 36 36" fill="none" xmlns="http://www.w3.org/2000/svg">
<path d="M10.2935 6.19021C10.1997 6.09642 10.0725 6.04371 9.9399 6.0437C9.80728 6.04369 9.68008 6.09637 9.5863 6.19015L6.19021 9.58624C6.09638 9.68007 6.0437 9.80734 6.04376 9.94003C6.04382 10.0727 6.09662 10.1999 6.19053 10.2937L7.46553 11.5663C7.66085 11.7613 7.97718 11.7611 8.17232 11.566L9.51564 10.2227L9.65697 10.364L8.31365 11.7073C8.11838 11.9026 8.11838 12.2192 8.31365 12.4144L10.0105 14.1113C10.2058 14.3066 10.5224 14.3066 10.7176 14.1113L12.0609 12.768L12.2023 12.9093L10.859 14.2526C10.6637 14.4479 10.6637 14.7645 10.859 14.9598L12.5558 16.6566C12.6496 16.7504 12.7768 16.8031 12.9094 16.8031C13.042 16.8031 13.1692 16.7504 13.2629 16.6566L16.6567 13.2629C16.8519 13.0676 16.852 12.7511 16.6568 12.5558L10.2935 6.19021ZM25.8297 6.65892C25.6308 6.51746 25.3589 6.54024 25.1863 6.7128L21.9871 9.91202C21.8933 10.0058 21.8406 10.133 21.8406 10.2656C21.8406 10.3982 21.8933 10.5254 21.9871 10.6191L25.3808 14.0129C25.5761 14.2081 25.8927 14.2081 26.0879 14.0129L29.2872 10.8137C29.4597 10.6411 29.4825 10.3692 29.3411 10.1703C28.8691 9.50675 28.3464 8.86108 27.7426 8.25734L27.3921 8.60781L27.7426 8.25734C27.1389 7.65359 26.4932 7.13087 25.8297 6.65892ZM20.9973 11.6089C20.8021 11.4136 20.4855 11.4136 20.2902 11.6089L7.5613 24.3378C7.4915 24.4076 7.44392 24.4965 7.42457 24.5933L6.57613 28.8355C6.54334 28.9994 6.59465 29.1689 6.71287 29.2871C6.83108 29.4053 7.00055 29.4566 7.16448 29.4238L11.4067 28.5754C11.5035 28.556 11.5924 28.5085 11.6622 28.4387L24.3911 15.7098C24.5863 15.5145 24.5863 15.1979 24.3911 15.0026L20.9973 11.6089ZM23.4441 19.3432C23.2489 19.148 22.9323 19.148 22.7371 19.3433L19.3433 22.737C19.1481 22.9323 19.1481 23.2489 19.3433 23.4441L21.0402 25.141C21.2355 25.3363 21.5521 25.3363 21.7473 25.141L23.0906 23.7977L23.232 23.939L21.8886 25.2823C21.6934 25.4776 21.6934 25.7942 21.8886 25.9894L23.5855 27.6863C23.7808 27.8816 24.0974 27.8816 24.2926 27.6863L25.636 26.343L25.7773 26.4843L24.434 27.8276C24.2388 28.0228 24.2387 28.3391 24.4336 28.5344L25.7063 29.8094C25.8 29.9033 25.9273 29.9561 26.0599 29.9562C26.1926 29.9563 26.3199 29.9036 26.4137 29.8098L29.8098 26.4137C29.9036 26.3199 29.9563 26.1927 29.9563 26.0601C29.9563 25.9274 29.9035 25.8003 29.8098 25.7065L23.4441 19.3432Z" fill="white" stroke="#1E1E1E" stroke-linejoin="round"/>
</svg>
