<?xml version="1.0" encoding="UTF-8"?>
<svg id="_레이어_1" data-name="레이어 1" xmlns="http://www.w3.org/2000/svg" version="1.1" viewBox="0 0 36 36">
  <defs>
    <style>
      .cls-1 {
        fill: #1e1e1e;
      }

      .cls-1, .cls-2 {
        stroke-width: 0px;
      }

      .cls-2 {
        fill: #fff;
      }
    </style>
  </defs>
  <g id="SVGRepo_iconCarrier" data-name="SVGRepo iconCarrier">
    <g>
      <path class="cls-2" d="M18,24.3c-.5,0-.9-.2-1.2-.5l-7.5-7.5c-.7-.7-.7-1.8,0-2.5.3-.3.8-.5,1.2-.5s.9.2,1.2.5l6.3,6.3,6.3-6.3c.3-.3.8-.5,1.2-.5s.9.2,1.2.5c.7.7.7,1.8,0,2.5l-7.5,7.5c-.3.3-.8.5-1.2.5Z"/>
      <path class="cls-1" d="M25.5,13.7c.3,0,.6.1.9.4.5.5.5,1.3,0,1.8l-7.5,7.5c-.2.2-.6.4-.9.4s-.6-.1-.9-.4l-7.5-7.5c-.5-.5-.5-1.3,0-1.8.2-.2.6-.4.9-.4s.6.1.9.4l6.6,6.6,6.6-6.6c.2-.2.6-.4.9-.4M25.5,12.7c-.6,0-1.2.2-1.6.7l-5.9,5.9-5.9-5.9c-.4-.4-1-.7-1.6-.7s-1.2.2-1.6.7c-.9.9-.9,2.3,0,3.2l7.5,7.5c.4.4,1,.7,1.6.7s1.2-.2,1.6-.7l7.5-7.5c.9-.9.9-2.3,0-3.2-.4-.4-1-.7-1.6-.7h0Z"/>
    </g>
  </g>
</svg>