<svg width="24" height="24" viewBox="0 0 24 24" fill="none" xmlns="http://www.w3.org/2000/svg">
<path d="M11.6398 3.39624V3.39621L11.6345 3.39627C10.3782 3.40978 9.24969 3.4841 8.25072 3.62093C7.14554 3.77103 6.2363 4.00028 5.54513 4.32381C5.53285 4.32956 5.5208 4.3358 5.50903 4.34253L5.2289 4.5026C5.22319 4.50587 5.21754 4.50924 5.21197 4.51273C4.96701 4.66582 4.72809 4.85339 4.4947 5.07219L4.49468 5.07218L4.49143 5.07528C4.16772 5.38428 3.88788 5.73019 3.65246 6.11214C3.34592 6.59458 3.11407 7.12493 2.95531 7.70041C2.75398 8.37831 2.65588 9.11237 2.65588 9.89904V10.6394C2.65588 11.6678 2.66255 12.4662 2.67603 13.0324L2.67607 13.0338C2.71652 14.5575 2.83813 15.8421 3.04577 16.8803C3.30899 18.1964 3.74482 19.2969 4.37257 20.1582L4.37254 20.1582L4.37592 20.1627C5.11331 21.1508 6.10522 21.8069 7.33044 22.128C8.82831 22.5264 10.2804 22.6936 11.6846 22.6241L11.6846 22.6242L11.6924 22.6237C12.3285 22.5822 12.9397 22.499 13.5254 22.3735L13.5255 22.3736L13.5343 22.3716C13.9556 22.2732 14.3469 22.1527 14.7069 22.0087L14.7069 22.0088L14.7152 22.0053L15.0954 21.8452C15.2898 21.7634 15.4119 21.5684 15.4007 21.3578L15.3206 19.8571C15.3126 19.7061 15.2367 19.5669 15.1141 19.4784C14.9916 19.3899 14.8356 19.3615 14.6898 19.4013L14.263 19.5177C13.9061 19.5938 13.5425 19.6575 13.1723 19.7085L13.1723 19.7085L13.1682 19.7091C12.6504 19.7849 12.1636 19.8093 11.7068 19.7846C11.701 19.7843 11.6951 19.7841 11.6893 19.784C10.9912 19.7708 10.4979 19.7247 10.1876 19.6557C10.1855 19.6553 10.1833 19.6548 10.1812 19.6544C10.1777 19.6536 10.1741 19.6529 10.1706 19.6523C9.65831 19.557 9.30763 19.387 9.07635 19.175L9.06496 19.1648C8.81373 18.9483 8.63261 18.6292 8.55235 18.1617C8.93135 18.2314 9.32516 18.2903 9.73366 18.3385C10.3866 18.4335 11.021 18.4949 11.6369 18.5223C12.2205 18.5501 12.854 18.536 13.5362 18.4816C13.9779 18.4538 14.5752 18.3924 15.3236 18.2989C16.1197 18.1993 16.8818 17.9858 17.6081 17.6582L17.6081 17.6583L17.615 17.6551C18.3091 17.3292 18.9011 16.9363 19.3813 16.471C19.86 16.007 20.1886 15.4967 20.2945 14.9367C20.4197 14.3097 20.5082 13.5619 20.5624 12.6976C20.6165 12.0735 20.6502 11.4174 20.6637 10.7292L20.6638 10.7292V10.7194V9.89904C20.6638 9.11235 20.5657 8.37827 20.3644 7.70035C20.2056 7.12489 19.9738 6.59454 19.6672 6.11211C19.4328 5.73181 19.1544 5.38723 18.8324 5.07926C18.6094 4.85681 18.3682 4.66724 18.1086 4.51308C18.0299 4.46076 17.9594 4.41607 17.9007 4.38255C17.8707 4.36539 17.8351 4.34616 17.7982 4.32975C17.7977 4.32952 17.797 4.32919 17.7961 4.32879C17.7882 4.3252 17.7663 4.31525 17.7347 4.305C17.0598 3.99064 16.1701 3.76775 15.0887 3.62089L15.0884 3.62085C14.0768 3.48415 12.9486 3.40978 11.7053 3.39627V3.39624H11.6999H11.6398ZM3.17572 13.0205L3.17589 13.0205L3.17572 13.0205ZM16.6024 10.1992V14.4814H15.7015V10.3392C15.7015 9.78957 15.5902 9.28436 15.2822 8.91069C14.9589 8.51853 14.4931 8.35856 13.9809 8.35856C13.4068 8.35856 12.8989 8.54774 12.552 8.99025C12.2232 9.4096 12.1003 9.98074 12.1003 10.6194V12.6606H11.2194V10.6194C11.2194 9.98074 11.0965 9.4096 10.7677 8.99025C10.4208 8.54774 9.91286 8.35856 9.33877 8.35856C8.82665 8.35856 8.3608 8.51853 8.03753 8.91069C7.7295 9.28436 7.6182 9.78957 7.6182 10.3392V14.4814H6.71731V10.1992C6.71731 9.29777 6.94733 8.64747 7.35233 8.18919C7.75438 7.73423 8.28581 7.49769 8.99861 7.49769C9.81995 7.49769 10.3784 7.79902 10.7565 8.38464L11.234 9.16062C11.325 9.3085 11.4862 9.39857 11.6599 9.39857C11.8335 9.39857 11.9947 9.3085 12.0857 9.16062L12.5632 8.38463C12.9413 7.79901 13.4998 7.49769 14.3211 7.49769C15.0339 7.49769 15.5653 7.73423 15.9674 8.18919C16.3724 8.64747 16.6024 9.29777 16.6024 10.1992Z" fill="white" stroke="#1E1E1E" stroke-linejoin="round"/>
</svg>
