<?xml version="1.0" encoding="UTF-8"?>
<svg id="_레이어_1" data-name="레이어 1" xmlns="http://www.w3.org/2000/svg" version="1.1" viewBox="0 0 36 36">
  <defs>
    <style>
      .cls-1 {
        fill: #1e1e1e;
      }

      .cls-1, .cls-2 {
        stroke-width: 0px;
      }

      .cls-2 {
        fill: #fff;
      }
    </style>
  </defs>
  <g id="SVGRepo_iconCarrier" data-name="SVGRepo iconCarrier">
    <g>
      <path class="cls-2" d="M12.3,32.9c-1.2,0-2.2-1-2.2-2.2s1-2.2,2.2-2.2h3.5v-1.3h-6c-1.8,0-2.9,0-4-.5-1-.5-1.7-1.2-2.2-2.2-.5-1.1-.5-2.2-.5-4v-10.8c0-1.8,0-2.9.5-4,.5-1,1.2-1.7,2.2-2.2,1.1-.5,2.2-.5,4-.5h16.4c1.8,0,2.9,0,4,.5,1,.5,1.7,1.2,2.2,2.2.5,1.1.5,2.2.5,4v10.8c0,1.8,0,2.9-.5,4-.5,1-1.2,1.7-2.2,2.2-1.1.5-2.2.5-4,.5h-6v1.3h3.5c1.2,0,2.2,1,2.2,2.2s-1,2.2-2.2,2.2h-11.3ZM9.8,7.5c-.8,0-1.8,0-2,0-.1,0-.2.1-.3.3,0,.2,0,1.2,0,2v10.8c0,.8,0,1.8,0,2,0,.1.2.2.3.3.2,0,1.2,0,2,0h16.4c.8,0,1.8,0,2,0,.1,0,.2-.2.3-.3,0-.2,0-1.2,0-2v-10.8c0-.8,0-1.8,0-2,0-.1-.2-.2-.3-.3-.2,0-1.2,0-2,0H9.8Z"/>
      <path class="cls-1" d="M26.2,3.6c1.8,0,2.8,0,3.8.5.9.4,1.5,1.1,2,2,.5,1,.5,2,.5,3.8v10.8c0,1.8,0,2.8-.5,3.8-.4.9-1.1,1.5-2,2-1,.5-2,.5-3.8.5h-6.5v2.3h4c.9,0,1.7.8,1.7,1.7s-.8,1.7-1.7,1.7h-11.3c-.9,0-1.7-.8-1.7-1.7s.8-1.7,1.7-1.7h4v-2.3h-6.5c-1.8,0-2.8,0-3.8-.5-.9-.4-1.5-1.1-2-2-.5-1-.5-2-.5-3.8v-10.8c0-1.8,0-2.8.5-3.8.4-.9,1.1-1.5,2-2,1-.5,2-.5,3.8-.5h16.4M9.8,23.4h16.4c1.1,0,2,0,2.2-.1.2-.1.4-.3.5-.5.1-.2.1-1.2.1-2.2v-10.8c0-1.1,0-2-.1-2.2-.1-.2-.3-.4-.5-.5-.2-.1-1.2-.1-2.2-.1H9.8c-1.1,0-2,0-2.2.1-.2.1-.4.3-.5.5-.1.2-.1,1.2-.1,2.2v10.8c0,1.1,0,2,.1,2.2.1.2.3.4.5.5.2.1,1.2.1,2.2.1M26.2,2.6H9.8c-1.9,0-3,0-4.2.6-1,.5-1.9,1.4-2.4,2.4-.6,1.2-.6,2.3-.6,4.2v10.8c0,1.9,0,3,.6,4.2.5,1,1.4,1.9,2.4,2.4,1.2.6,2.3.6,4.2.6h5.5v.3h-3c-1.5,0-2.7,1.2-2.7,2.7s1.2,2.7,2.7,2.7h11.3c1.5,0,2.7-1.2,2.7-2.7s-1.2-2.7-2.7-2.7h-3v-.3h5.5c1.9,0,3,0,4.2-.6,1-.5,1.9-1.4,2.4-2.4.6-1.2.6-2.3.6-4.2v-10.8c0-1.9,0-3-.6-4.2-.5-1-1.4-1.9-2.4-2.4-1.2-.6-2.3-.6-4.2-.6h0ZM8,8c.3,0,1.2,0,1.8,0h16.4c.6,0,1.5,0,1.8,0,0,.3,0,1.2,0,1.8v10.8c0,.6,0,1.5,0,1.8-.3,0-1.2,0-1.8,0H9.8c-.6,0-1.5,0-1.8,0,0-.3,0-1.2,0-1.8v-10.8c0-.6,0-1.5,0-1.8h0Z"/>
    </g>
  </g>
</svg>