<svg width="24" height="24" viewBox="0 0 24 24" fill="none" xmlns="http://www.w3.org/2000/svg">
<path d="M2 1.5C1.72386 1.5 1.5 1.72386 1.5 2V22C1.5 22.2761 1.72386 22.5 2 22.5H6C6.27614 22.5 6.5 22.2761 6.5 22V2C6.5 1.72386 6.27614 1.5 6 1.5H2ZM9.34315 15.1569C10.8434 16.6571 12.8783 17.5 15 17.5C17.1217 17.5 19.1566 16.6571 20.6569 15.1569C22.1571 13.6566 23 11.6217 23 9.5C23 7.37827 22.1571 5.34344 20.6569 3.84315C19.1566 2.34285 17.1217 1.5 15 1.5C12.8783 1.5 10.8434 2.34285 9.34315 3.84315C7.84285 5.34344 7 7.37827 7 9.5C7 11.6217 7.84285 13.6566 9.34315 15.1569Z" fill="white" stroke="#1E1E1E" stroke-linejoin="round"/>
</svg>
