<svg width="36" height="36" viewBox="0 0 36 36" fill="none" xmlns="http://www.w3.org/2000/svg">
<path d="M12.0104 13.7889L11.7114 13.5388L11.396 13.7678C10.6727 14.2927 9.8044 14.6035 8.87069 14.6035C8.61666 14.6035 8.40087 14.3877 8.40087 14.1336C8.40087 13.8796 8.61666 13.6638 8.87069 13.6638C10.4328 13.6638 11.7064 12.5927 12.1655 11.1709L12.3765 10.5172H11.6897H8.87069C8.61666 10.5172 8.40087 10.3014 8.40087 10.0474C8.40087 9.79339 8.61666 9.57759 8.87069 9.57759H10.5388H10.9889L11.0361 9.12993C11.0627 8.87684 11.2632 8.69828 11.4957 8.69828C11.7282 8.69828 11.9287 8.87684 11.9553 9.12993L12.0025 9.57759H12.4526H12.7888H12.7889H12.7889H12.789H12.7891H12.7892H12.7893H12.7893H12.7894H12.7895H12.7896H12.7896H12.7897H12.7898H12.7899H12.7899H12.79H12.7901H12.7902H12.7902H12.7903H12.7904H12.7905H12.7905H12.7906H12.7907H12.7908H12.7908H12.7909H12.791H12.7911H12.7911H12.7912H12.7913H12.7914H12.7914H12.7915H12.7916H12.7917H12.7917H12.7918H12.7919H12.792H12.792H12.7921H12.7922H12.7923H12.7923H12.7924H12.7925H12.7926H12.7926H12.7927H12.7928H12.7929H12.7929H12.793H12.7931H12.7932H12.7932H12.7933H12.7934H12.7935H12.7935H12.7936H12.7937H12.7938H12.7938H12.7939H12.794H12.7941H12.7941H12.7942H12.7943H12.7944H12.7944H12.7945H12.7946H12.7947H12.7947H12.7948H12.7949H12.795H12.795H12.7951H12.7952H12.7953H12.7953H12.7954H12.7955H12.7955H12.7956H12.7957H12.7958H12.7958H12.7959H12.796H12.7961H12.7961H12.7962H12.7963H12.7964H12.7964H12.7965H12.7966H12.7966H12.7967H12.7968H12.7969H12.7969H12.797H12.7971H12.7971H12.7972H12.7973H12.7974H12.7974H12.7975H12.7976H12.7977H12.7977H12.7978H12.7979H12.7979H12.798H12.7981H12.7982H12.7982H12.7983H12.7984H12.7984H12.7985H12.7986H12.7986H12.7987H12.7988H12.7989H12.7989H12.799H12.7991H12.7991H12.7992H12.7993H12.7994H12.7994H12.7995H12.7996H12.7996H12.7997H12.7998H12.7998H12.7999H12.8H12.8H12.8001H12.8002H12.8003H12.8003H12.8004H12.8005H12.8005H12.8006H12.8007H12.8007H12.8008H12.8009H12.8009H12.801H12.8011H12.8011H12.8012H12.8013H12.8013H12.8014H12.8015H12.8015H12.8016H12.8017H12.8017H12.8018H12.8019H12.8019H12.802H12.8021H12.8021H12.8022H12.8023H12.8023H12.8024H12.8025H12.8025H12.8026H12.8027H12.8027H12.8028H12.8029H12.8029H12.803H12.8031H12.8031H12.8032H12.8032H12.8033H12.8034H12.8034H12.8035H12.8036H12.8036H12.8037H12.8038H12.8038H12.8039H12.8039H12.804H12.8041H12.8041H12.8042H12.8043H12.8043H12.8044H12.8044H12.8045H12.8046H12.8046H12.8047H12.8047H12.8048H12.8049H12.8049H12.805H12.8051H12.8051H12.8052H12.8052H12.8053H12.8054H12.8054H12.8055H12.8055H12.8056H12.8056H12.8057H12.8058H12.8058H12.8059H12.8059H12.806H12.8061H12.8061H12.8062H12.8062H12.8063H12.8063H12.8064H12.8065H12.8065H12.8066H12.8066H12.8067H12.8067H12.8068H12.8069H12.8069H12.807H12.807H12.8071H12.8071H12.8072H12.8072H12.8073H12.8074H12.8074H12.8075H12.8075H12.8076H12.8076H12.8077H12.8077H12.8078H12.8078H12.8079H12.808H12.808H12.8081H12.8081H12.8082H12.8082H12.8083H12.8083H12.8084H12.8084H12.8085H12.8085H12.8086H12.8086H12.8087H12.8087H12.8088H12.8088H12.8089H12.8089H12.809H12.809H12.8091H12.8091H12.8092H12.8092H12.8093H12.8093H12.8094H12.8094H12.8095H12.8095H12.8096H12.8096H12.8097H12.8097H12.8097H12.8098H12.8098H12.8099H12.8099H12.81H12.81H12.8101H12.8101H12.8102H12.8102H12.8102H12.8103H12.8103H12.8104H12.8104H12.8105H12.8105H12.8106H12.8106H12.8106H12.8107H12.8107H12.8108H12.8108H12.8109H12.8109H12.8109H12.811H12.811H12.8111H12.8111H12.8111H12.8112H12.8112H12.8113H12.8113H12.8113H12.8114H12.8114H12.8115H12.8115H12.8115H12.8116H12.8116H12.8117H12.8117H12.8117H12.8118H12.8118H12.8118H12.8119H12.8119H12.812H12.812H12.812H12.8121H12.8121H12.8121H12.8122H12.8122H12.8122H12.8123H12.8123H12.8123H12.8124H12.8124H12.8124H12.8125H12.8125H12.8125H12.8126H12.8126H12.8126H12.8127H12.8127H12.8127H12.8128H12.8128H12.8128H12.8128H12.8129H12.8129H12.8129H12.813H12.813H12.813H12.8131H12.8131H12.8131H12.8131H12.8132H12.8132H12.8132H12.8132H12.8133H12.8133H12.8133H12.8134H12.8134H12.8134H12.8134H12.8135H12.8135H12.8135H12.8135H12.8136H12.8136H12.8136H12.8136H12.8136H12.8137H12.8137H12.8137H12.8137H12.8138H12.8138H12.8138H12.8138H12.8138H12.8139H12.8139H12.8139H12.8139H12.8139H12.814H12.814H12.814H12.814H12.814H12.8141H12.8141H12.8141H12.8141H12.8141H12.8141H12.8142H12.8142H12.8142H12.8142H12.8142H12.8142H12.8143H12.8143H12.8143H12.8143H12.8143H12.8143H12.8143H12.8144H12.8144H12.8144H12.8144H12.8144H12.8144H12.8144H12.8144H12.8145H12.8145H12.8145H12.8145H12.8145H12.8145H12.8145H12.8145H12.8145H12.8145H12.8145H12.8146H12.8146H12.8146H12.8146H12.8146H12.8146H12.8146H12.8146H12.8146H12.8146H12.8146H12.8146H12.8146H12.8146H12.8146H12.8146H12.8146H12.8146H12.8147H12.8147H12.8405H14.1207C14.3747 9.57759 14.5905 9.79339 14.5905 10.0474C14.5905 10.3058 14.3833 10.5172 14.1207 10.5172H13.694H13.279L13.2025 10.9251C13.0992 11.4761 12.8794 12.0016 12.5817 12.4897L12.3439 12.8798L12.711 13.1518C13.1199 13.4547 13.5969 13.6638 14.1336 13.6638C14.3877 13.6638 14.6035 13.8796 14.6035 14.1336C14.6035 14.3877 14.3877 14.6035 14.1336 14.6035C13.3845 14.6035 12.6421 14.3172 12.0104 13.7889ZM14.0302 4.56897H8.97414C7.59229 4.56897 6.46573 4.91123 5.68848 5.68848C4.91123 6.46573 4.56897 7.59229 4.56897 8.97414V14.0431C4.56897 15.4473 4.9095 16.5889 5.68892 17.3664C6.4693 18.1448 7.59933 18.4685 8.98025 18.4353H14.0371C15.4402 18.4684 16.5856 18.1466 17.3664 17.3639C18.1469 16.5815 18.4684 15.4332 18.4353 14.0242V8.98025C18.4685 7.59933 18.1448 6.46897 17.3643 5.68848C16.5851 4.9092 15.4402 4.56897 14.0302 4.56897Z" fill="white" stroke="#1E1E1E"/>
<path d="M12.017 27.4101C11.4658 27.7331 11.2188 28.3467 11.3213 28.9281C8.51688 27.8084 6.53878 25.0733 6.53878 21.8793C6.53878 21.0729 5.87526 20.4094 5.06895 20.4094C4.26263 20.4094 3.59912 21.0729 3.59912 21.8793C3.59912 27.6769 8.32298 32.4008 14.1207 32.4008C14.6559 32.4008 15.1357 32.1057 15.4012 31.6694L15.4054 31.6625L15.4094 31.6555C15.6638 31.2053 15.6661 30.6374 15.3893 30.1812C15.3889 30.1807 15.3886 30.1802 15.3883 30.1796L14.0336 27.9218C13.617 27.2114 12.6996 27.0025 12.017 27.4101Z" fill="white" stroke="#1E1E1E"/>
<path d="M20.5886 4.34447C20.3342 4.79465 20.3319 5.3626 20.6088 5.8188L21.9644 8.07813C22.381 8.78856 23.2984 8.9974 23.9811 8.58982C24.5322 8.26682 24.7792 7.65324 24.6767 7.07182C27.4812 8.19148 29.4593 10.9266 29.4593 14.1207C29.4593 14.927 30.1228 15.5905 30.9291 15.5905C31.7354 15.5905 32.3989 14.927 32.3989 14.1207C32.3989 8.32298 27.6751 3.59912 21.8774 3.59912C21.3421 3.59912 20.8624 3.89425 20.5968 4.33053L20.5926 4.33743L20.5886 4.34447Z" fill="white" stroke="#1E1E1E"/>
<path d="M26.4901 26.3905L26.3519 26.1141H26.0428H22.6937H22.3847L22.2465 26.3905L22.0267 26.8302C21.9489 26.9857 21.7802 27.084 21.6075 27.084C21.5489 27.084 21.4711 27.0662 21.4067 27.0345C21.1711 26.9118 21.0787 26.6265 21.1897 26.3954L23.9534 20.8809C24.0374 20.7218 24.2035 20.6228 24.3747 20.6228C24.5443 20.6228 24.7091 20.7198 24.7939 20.8895L24.7941 20.8899L27.5598 26.4084C27.6704 26.6387 27.579 26.9229 27.3451 27.0462C27.106 27.1594 26.8282 27.0669 26.7099 26.8302L26.4901 26.3905ZM24.3618 17.3081C20.4656 17.3081 17.2928 20.4667 17.2928 24.3771C17.2928 28.2733 20.4514 31.446 24.3618 31.446C28.258 31.446 31.4308 28.2875 31.4308 24.3771C31.4308 20.4673 28.2716 17.3081 24.3618 17.3081Z" fill="white" stroke="#1E1E1E"/>
<path d="M23.2143 24.4508L22.8567 25.1728H23.6624H25.0718H25.8842L25.5182 24.4475L24.807 23.0381L24.3565 22.1453L23.9126 23.0413L23.2143 24.4508Z" fill="white" stroke="#1E1E1E"/>
</svg>
