<svg width="24" height="24" viewBox="0 0 24 24" fill="none" xmlns="http://www.w3.org/2000/svg">
<path d="M14.4896 22.1755C15.2904 22.1625 16.1266 21.9968 16.8138 21.7668C17.1581 21.6515 17.4757 21.5165 17.739 21.3693C17.99 21.229 18.2397 21.0515 18.3956 20.8319C18.4894 20.6997 18.5134 20.5302 18.4598 20.3772L17.4935 17.6172C17.4471 17.4846 17.347 17.3776 17.2178 17.3225C17.0886 17.2674 16.9421 17.2692 16.8143 17.3274C16.5127 17.4648 15.8665 17.6048 15.3815 17.6161L15.3804 17.6162C14.7027 17.6336 14.3849 17.4127 14.2157 17.186C14.0241 16.9293 13.9505 16.5674 13.9505 16.2089V10.5646H17.4936C17.7698 10.5646 17.9936 10.3407 17.9936 10.0646V7.16135C17.9936 6.88521 17.7698 6.66135 17.4936 6.66135H13.9505V2.32263C13.9505 2.04649 13.7266 1.82263 13.4505 1.82263H10.499C10.2453 1.82263 9.90282 2.00694 9.85582 2.40866L9.85569 2.40985C9.69125 3.8452 9.0074 6.24561 6.21189 7.21037C6.01028 7.27995 5.875 7.46974 5.875 7.68302V10.0646C5.875 10.3407 6.09886 10.5646 6.375 10.5646H7.89659V16.507C7.89659 17.7084 8.35949 19.1439 9.42359 20.2736C10.4993 21.4155 12.1601 22.2139 14.4896 22.1755ZM14.4896 22.1755L14.4815 21.6779L14.4897 22.1755C14.4897 22.1755 14.4897 22.1755 14.4896 22.1755Z" fill="white" stroke="#1E1E1E" stroke-linejoin="round"/>
</svg>
