<svg width="24" height="24" viewBox="0 0 24 24" fill="none" xmlns="http://www.w3.org/2000/svg">
<path d="M22.8761 6.27735C22.9999 6.09157 22.9856 5.84619 22.8409 5.67609C22.6963 5.506 22.4564 5.45242 22.2531 5.54482C22.0753 5.62566 21.8938 5.69977 21.7091 5.7671C21.9867 5.37287 22.2069 4.93372 22.3567 4.46102C22.4195 4.2627 22.353 4.0462 22.1896 3.91738C22.0263 3.78857 21.8002 3.77436 21.622 3.88171C20.9187 4.30542 20.1434 4.61603 19.3229 4.81167C18.4546 3.97662 17.2929 3.5 16 3.5C13.3724 3.5 11.23 5.64538 11.23 8.29C11.23 8.43643 11.2367 8.58106 11.2493 8.72328C8.0872 8.39635 5.28901 6.80805 3.38768 4.4742C3.28425 4.34724 3.12521 4.27897 2.96193 4.29145C2.79865 4.30394 2.65183 4.39558 2.5689 4.53679C2.15427 5.24277 1.92004 6.07006 1.92004 6.94C1.92004 7.92894 2.21685 8.8532 2.73209 9.61686C2.69098 9.59714 2.65019 9.57681 2.60975 9.55589C2.45475 9.47572 2.26916 9.48216 2.12009 9.57288C1.97102 9.66361 1.88004 9.82549 1.88004 10V10.03C1.88004 11.5758 2.6122 12.9536 3.74817 13.8305C3.66049 13.8565 3.58011 13.9064 3.51713 13.9769C3.39929 14.1089 3.35993 14.2932 3.41363 14.4618C3.71698 15.4139 4.31105 16.2469 5.11235 16.8439C5.5542 17.1731 6.04682 17.4214 6.56736 17.5809C5.35336 18.2716 3.97328 18.6369 2.56247 18.63H2.56004C2.2397 18.63 1.9192 18.6112 1.59846 18.5734C1.36724 18.5462 1.14784 18.6822 1.06933 18.9014C0.990815 19.1206 1.07398 19.3649 1.26988 19.4907C3.24765 20.7607 5.60094 21.5 8.12004 21.5C16.3333 21.5 20.83 14.6754 20.83 8.79V8.78443C20.83 8.68343 20.83 8.58104 20.8283 8.4761C21.6276 7.86604 22.3151 7.11882 22.8761 6.27735Z" fill="white" stroke="#1E1E1E" stroke-linejoin="round"/>
</svg>
