<svg width="1em" height="1em" viewBox="0 0 24 24" fill="none" xmlns="http://www.w3.org/2000/svg">
<path d="M21.5 6C21.5 4.61929 20.3807 3.5 19 3.5H5C3.61929 3.5 2.5 4.61929 2.5 6V18C2.5 19.3807 3.61929 20.5 5 20.5H19C20.3807 20.5 21.5 19.3807 21.5 18V6ZM5.5 17V10.5H18.5V16.9856L18.4951 17.0709C18.461 17.3132 18.252 17.5 18 17.5H6.01441L5.92915 17.4951C5.68677 17.461 5.5 17.252 5.5 17ZM5.5 7C5.5 6.72386 5.72386 6.5 6 6.5C6.27614 6.5 6.5 6.72386 6.5 7C6.5 7.27614 6.27614 7.5 6 7.5C5.72386 7.5 5.5 7.27614 5.5 7ZM8.5 7C8.5 6.72386 8.72386 6.5 9 6.5C9.27614 6.5 9.5 6.72386 9.5 7C9.5 7.27614 9.27614 7.5 9 7.5C8.72386 7.5 8.5 7.27614 8.5 7ZM11.5 7C11.5 6.72386 11.7238 6.5 12 6.5C12.2762 6.5 12.5 6.72386 12.5 7C12.5 7.27614 12.2762 7.5 12 7.5C11.7238 7.5 11.5 7.27614 11.5 7Z" fill="white" stroke="#9747FF" stroke-linejoin="round"/>
</svg>
