<svg width="24" height="24" viewBox="0 0 64 64" fill="none" xmlns="http://www.w3.org/2000/svg">
<path fill-rule="evenodd" clip-rule="evenodd" d="M26.3025 38.563V23.5981C31.6151 26.0979 35.7296 28.5128 40.5959 31.1164C36.5822 33.3423 31.6151 35.8398 26.3025 38.563ZM55.9094 16.1554C54.9929 14.9481 53.4311 14.0082 51.7682 13.6971C46.8807 12.769 16.3893 12.7663 11.5044 13.6971C10.171 13.9471 8.98356 14.5513 7.96355 15.4901C3.6657 19.4791 5.01244 40.8712 6.04839 44.3364C6.48402 45.8363 7.04717 46.918 7.7564 47.6281C8.67016 48.5668 9.92124 49.2132 11.3583 49.5031C15.3825 50.3355 36.1148 50.8009 51.6832 49.6281C53.1176 49.3781 54.3873 48.7109 55.3887 47.7322C59.3625 43.7591 59.0916 21.1657 55.9094 16.1554Z" fill="white"/>
</svg>
