<svg width="24" height="24" viewBox="0 0 24 24" fill="none" xmlns="http://www.w3.org/2000/svg">
<path d="M21.3881 5.7902C21.3806 5.77846 21.3727 5.76703 21.3643 5.75595C20.9389 5.19566 20.2397 4.78256 19.5057 4.64506C19.0011 4.54937 17.9007 4.48395 16.5543 4.44075C15.1892 4.39695 13.5253 4.37506 11.8633 4.375C10.2012 4.37494 8.53736 4.3967 7.1724 4.44047C5.82621 4.48363 4.72587 4.5491 4.22129 4.64511C3.62635 4.75679 3.09665 5.02771 2.64773 5.44089L2.64772 5.44088L2.64619 5.44231C2.36483 5.70345 2.16222 6.0728 2.00982 6.4711C1.85493 6.87592 1.73704 7.35053 1.64714 7.86053C1.4673 8.88078 1.39068 10.0944 1.37721 11.2855C1.3637 12.4793 1.41351 13.6659 1.49143 14.638C1.56773 15.5901 1.67442 16.3843 1.78851 16.7674C1.96328 17.3685 2.20497 17.8624 2.55257 18.2116C2.97433 18.6438 3.53726 18.9279 4.15941 19.0536C4.58005 19.1404 5.38546 19.2108 6.41198 19.2639C7.4529 19.3177 8.75586 19.3552 10.192 19.3691C13.0632 19.3968 16.4813 19.3304 19.4188 19.1091C19.4349 19.1079 19.4511 19.1059 19.4671 19.1031C20.1061 18.9917 20.6737 18.6935 21.1202 18.2572L21.1203 18.2572L21.1243 18.2532C21.3861 17.9914 21.5783 17.6165 21.7258 17.211C21.8766 16.7967 21.9964 16.3057 22.0902 15.7715C22.2779 14.7025 22.3688 13.4154 22.3747 12.1271C22.3806 10.8377 22.3016 9.53119 22.1435 8.42111C21.9892 7.33769 21.7494 6.35909 21.3881 5.7902ZM10.7354 13.4535C10.6122 13.5165 10.4882 13.5799 10.3634 13.6436V9.64482C11.4767 10.1926 12.4618 10.7323 13.4841 11.2924C13.7119 11.4173 13.9416 11.5431 14.175 11.6703C13.1415 12.2243 11.9767 12.8194 10.7354 13.4535Z" fill="white" stroke="#1E1E1E" stroke-linejoin="round"/>
</svg>
